<svg width="31" height="31" viewBox="0 0 31 31" fill="none" xmlns="http://www.w3.org/2000/svg">
<g clip-path="url(#clip0_3213_13795)">
<path d="M8.65233 7.35236C8.5597 7.34809 8.46842 7.37576 8.39375 7.43075C8.31909 7.48574 8.26558 7.56471 8.24218 7.65443L8.02878 8.34172C7.99386 8.45485 7.92363 8.55382 7.82837 8.62413C7.73312 8.69445 7.61786 8.73242 7.49946 8.73248H6.63204C6.54223 8.7317 6.45446 8.75927 6.38123 8.81127C6.308 8.86327 6.25304 8.93705 6.22417 9.0221C6.19531 9.10715 6.19402 9.19914 6.22048 9.28497C6.24693 9.3708 6.2998 9.44609 6.37154 9.50013L7.10594 10.0544C7.19623 10.1231 7.26325 10.2179 7.29794 10.326C7.33263 10.434 7.33333 10.5501 7.29993 10.6585L7.05051 11.4622C7.0206 11.5488 7.02074 11.6429 7.05091 11.7294C7.08108 11.8159 7.13952 11.8897 7.21679 11.9389C7.28904 11.9946 7.37773 12.0249 7.46898 12.0249C7.56023 12.0249 7.64891 11.9946 7.72117 11.9389L8.17566 11.5925C8.30881 11.4902 8.47198 11.4348 8.63986 11.4348C8.80774 11.4348 8.97091 11.4902 9.10406 11.5925L9.55855 11.9389C9.63077 11.9935 9.71839 12.0239 9.80891 12.0257C9.89943 12.0276 9.98822 12.0008 10.0626 11.9491C10.137 11.8975 10.1931 11.8237 10.223 11.7382C10.253 11.6528 10.2551 11.5601 10.2292 11.4733L9.97979 10.6696C9.9464 10.5612 9.94709 10.4451 9.98178 10.3371C10.0165 10.229 10.0835 10.1342 10.1738 10.0655L10.9082 9.51122C10.9799 9.45718 11.0328 9.38188 11.0592 9.29605C11.0857 9.21022 11.0844 9.11824 11.0555 9.03318C11.0267 8.94813 10.9717 8.87435 10.8985 8.82235C10.8253 8.77035 10.7375 8.74278 10.6477 8.74356H9.79134C9.67154 8.74279 9.5552 8.70322 9.45978 8.63077C9.36435 8.55833 9.29497 8.45691 9.26202 8.34172L9.04863 7.65443C9.02575 7.56708 8.97431 7.48989 8.9025 7.43515C8.83068 7.38041 8.74262 7.35127 8.65233 7.35236Z" fill="#FFD809"/>
<path d="M4.43992 13.6655C4.34776 13.6618 4.25712 13.6898 4.18303 13.7448C4.10894 13.7997 4.05584 13.8783 4.03254 13.9675L3.81915 14.6548C3.78422 14.768 3.71399 14.8669 3.61873 14.9372C3.52348 15.0076 3.40822 15.0455 3.28982 15.0456H2.43071C2.34057 15.0425 2.25194 15.0693 2.17872 15.122C2.10549 15.1747 2.05182 15.2501 2.0261 15.3366C1.99431 15.4211 1.99148 15.5137 2.01806 15.6C2.04465 15.6863 2.09914 15.7613 2.17298 15.8132L2.90738 16.3675C3.00079 16.4357 3.07052 16.5315 3.1068 16.6413C3.14308 16.7511 3.14409 16.8695 3.10969 16.98L2.86027 17.7837C2.8301 17.8699 2.82982 17.9639 2.85948 18.0503C2.88913 18.1368 2.947 18.2107 3.02378 18.2603C3.09584 18.3165 3.18459 18.347 3.27597 18.347C3.36734 18.347 3.4561 18.3165 3.52816 18.2603L3.97434 17.9028C4.10791 17.8003 4.27157 17.7448 4.43992 17.7448C4.60828 17.7448 4.77193 17.8003 4.9055 17.9028L5.36 18.2492C5.43189 18.3047 5.51959 18.3358 5.61036 18.3379C5.70112 18.3401 5.79022 18.3133 5.8647 18.2614C5.93918 18.2095 5.99516 18.1352 6.02451 18.0492C6.05385 17.9633 6.05504 17.8703 6.02789 17.7837L5.78124 16.98C5.74754 16.8718 5.74781 16.7559 5.782 16.6479C5.81619 16.5399 5.88266 16.4449 5.97246 16.3758L6.70963 15.8216C6.77969 15.7667 6.83097 15.6914 6.85638 15.6061C6.88179 15.5208 6.88007 15.4297 6.85147 15.3454C6.82287 15.2611 6.76879 15.1878 6.69672 15.1356C6.62464 15.0834 6.53813 15.0548 6.44913 15.0539H5.60388C5.4802 15.0588 5.35843 15.0222 5.25797 14.9499C5.15752 14.8776 5.08417 14.7737 5.04961 14.6548L4.83899 13.9675C4.81514 13.8802 4.76306 13.8032 4.69087 13.7486C4.61869 13.6939 4.53045 13.6647 4.43992 13.6655V13.6655Z" fill="#FFD809"/>
<path d="M13.6074 0.848121C10.7201 0.837494 7.89548 1.68962 5.49576 3.2952C8.08274 3.61316 10.4843 4.80269 12.3049 6.6679C14.4239 8.81991 15.6088 11.7206 15.6028 14.7408C15.5991 17.7999 14.382 20.7327 12.2186 22.8956C10.0552 25.0585 7.12214 26.2748 4.06298 26.2778C3.93827 26.2778 3.80802 26.2778 3.68054 26.2778C5.43417 27.8912 7.55493 29.0525 9.8589 29.661C12.1629 30.2694 14.5805 30.3066 16.9021 29.7693C19.2237 29.2321 21.3792 28.1366 23.1816 26.5778C24.9841 25.0191 26.379 23.0442 27.2456 20.8244C28.1121 18.6046 28.4241 16.2069 28.1543 13.8392C27.8846 11.4716 27.0414 9.20549 25.6978 7.23745C24.3542 5.26941 22.5507 3.65886 20.4439 2.54546C18.337 1.43207 15.9904 0.849445 13.6074 0.848121V0.848121Z" fill="white"/>
<path d="M13.3635 25.7928C13.363 25.3168 13.5037 24.8513 13.7678 24.4553C14.0319 24.0593 14.4075 23.7506 14.8472 23.5682C15.2869 23.3858 15.7708 23.3379 16.2376 23.4306C16.7045 23.5233 17.1334 23.7525 17.47 24.0891C17.8066 24.4257 18.0357 24.8545 18.1285 25.3214C18.2212 25.7883 18.1733 26.2722 17.9909 26.7119C17.8085 27.1515 17.4997 27.5272 17.1037 27.7913C16.7077 28.0554 16.2423 28.1961 15.7663 28.1955C15.129 28.1955 14.5179 27.9424 14.0673 27.4918C13.6167 27.0412 13.3635 26.43 13.3635 25.7928Z" fill="#FFDC7A"/>
<path d="M20.4138 22.1125C20.4133 21.9293 20.4671 21.7501 20.5685 21.5975C20.6698 21.4449 20.8142 21.3258 20.9833 21.2553C21.1524 21.1849 21.3386 21.1661 21.5183 21.2015C21.6981 21.2369 21.8632 21.3249 21.993 21.4542C22.1227 21.5836 22.2111 21.7485 22.2471 21.9281C22.283 22.1077 22.2648 22.294 22.1949 22.4633C22.1249 22.6326 22.0063 22.7773 21.854 22.8791C21.7017 22.981 21.5226 23.0353 21.3394 23.0353C21.0947 23.0346 20.8601 22.9372 20.6867 22.7644C20.5134 22.5916 20.4153 22.3573 20.4138 22.1125" fill="#FFDC7A"/>
<path opacity="0.6" d="M18.4046 5.84479C18.4046 4.45913 20.0092 3.43928 21.4531 4.55058C22.5616 6.0083 21.5473 7.59904 20.1589 7.59904C19.9267 7.59904 19.6967 7.55331 19.4822 7.46445C19.2677 7.37559 19.0728 7.24536 18.9086 7.08117C18.7444 6.91699 18.6142 6.72208 18.5253 6.50756C18.4365 6.29304 18.3907 6.06313 18.3907 5.83094" fill="#DEDFE4"/>
<path opacity="0.6" d="M12.8315 3.67487C12.831 3.444 12.899 3.21815 13.0268 3.02592C13.1547 2.83369 13.3367 2.68371 13.5499 2.59498C13.763 2.50625 13.9977 2.48275 14.2242 2.52745C14.4507 2.57216 14.6588 2.68306 14.8223 2.84612C14.9857 3.00918 15.0971 3.21706 15.1424 3.44346C15.1876 3.66986 15.1647 3.90459 15.0764 4.11794C14.9882 4.3313 14.8387 4.51368 14.6468 4.642C14.4548 4.77033 14.2291 4.83882 13.9983 4.83883C13.8452 4.83919 13.6935 4.80935 13.552 4.75102C13.4105 4.69269 13.2818 4.60701 13.1734 4.49889C13.0651 4.39077 12.9791 4.26234 12.9204 4.12094C12.8617 3.97954 12.8315 3.82796 12.8315 3.67487" fill="#DEDFE4"/>
<path opacity="0.6" d="M18.2079 10.6143C18.2073 10.4311 18.2612 10.2519 18.3625 10.0993C18.4639 9.94672 18.6083 9.82765 18.7774 9.75717C18.9465 9.68669 19.1327 9.66796 19.3124 9.70336C19.4921 9.73876 19.6573 9.8267 19.787 9.95604C19.9168 10.0854 20.0052 10.2503 20.0411 10.4299C20.0771 10.6096 20.0589 10.7958 19.9889 10.9651C19.919 11.1344 19.8003 11.2791 19.648 11.381C19.4958 11.4828 19.3167 11.5372 19.1335 11.5372C18.8885 11.5372 18.6535 11.44 18.48 11.267C18.3065 11.094 18.2086 10.8593 18.2079 10.6143" fill="#DEDFE4"/>
<g style="mix-blend-mode:multiply">
<g style="mix-blend-mode:multiply">
<g style="mix-blend-mode:multiply" opacity="0.6">
<path d="M28.2594 15.4973C28.2603 18.3444 27.4315 21.13 25.8744 23.5136C24.3173 25.8972 22.0993 27.7753 19.4918 28.9184C16.8842 30.0615 14.0001 30.42 11.1921 29.95C8.38402 29.4801 5.77378 28.202 3.68054 26.2722H4.06298C7.12118 26.2693 10.0534 25.0537 12.2167 22.892C14.3799 20.7303 15.5976 17.7989 15.6028 14.7407C15.6094 11.7205 14.4244 8.81954 12.3049 6.66785C11.6602 6.00977 10.9391 5.43108 10.1571 4.94409C12.8105 6.20495 14.9859 8.28891 16.3593 10.8858C17.7572 13.6274 18.1495 16.7724 17.4679 19.7734C17.0688 21.5194 19.1307 22.8219 20.4969 21.6607C22.8649 19.6361 24.4453 16.8432 24.9615 13.7708C25.4299 10.9301 25.0502 8.03966 24.1301 5.30436C26.7818 8.03436 28.2633 11.6915 28.2594 15.4973" fill="#DEDFE4"/>
</g>
</g>
</g>
<path d="M13.3635 25.7928C13.363 25.3168 13.5037 24.8513 13.7678 24.4553C14.0319 24.0593 14.4075 23.7506 14.8472 23.5682C15.2869 23.3858 15.7708 23.3379 16.2376 23.4306C16.7045 23.5233 17.1334 23.7525 17.47 24.0891C17.8066 24.4257 18.0357 24.8545 18.1285 25.3214C18.2212 25.7883 18.1733 26.2722 17.9909 26.7119C17.8085 27.1515 17.4997 27.5272 17.1037 27.7913C16.7077 28.0554 16.2423 28.1961 15.7663 28.1955C15.129 28.1955 14.5179 27.9424 14.0673 27.4918C13.6167 27.0412 13.3635 26.43 13.3635 25.7928Z" fill="white"/>
<path d="M24.4267 23.2403C19.5685 30.1492 10.1516 27.9516 8.874 27.522C8.63844 27.4417 8.5359 27.8269 8.77146 27.8934C18.4212 30.576 22.9274 26.0699 24.7509 23.4898C24.8839 23.3013 24.5874 23.063 24.4267 23.2403Z" fill="#C5C8D3"/>
<path d="M25.7597 21.7577C25.7283 21.7271 25.6901 21.7043 25.6482 21.6913C25.6063 21.6783 25.5618 21.6754 25.5186 21.6829C25.4647 21.6895 25.4127 21.7075 25.3662 21.7356C25.3051 21.7735 25.2508 21.8212 25.2054 21.8769C25.1611 21.9323 25.1168 21.9905 25.0752 22.0487L24.8923 22.3092C24.8678 22.3485 24.8535 22.3933 24.8507 22.4395C24.8385 22.4858 24.8385 22.5345 24.8507 22.5808C24.8757 22.6681 24.9332 22.7425 25.0115 22.7887C25.0525 22.8138 25.0985 22.8299 25.1462 22.8361C25.1939 22.8423 25.2424 22.8385 25.2886 22.8247L25.3717 22.7887C25.4237 22.759 25.4667 22.7159 25.4964 22.664L25.6544 22.434C25.6821 22.3952 25.7098 22.3564 25.732 22.3176L25.768 22.2566C25.79 22.2138 25.8085 22.1693 25.8235 22.1236C25.8349 22.0791 25.8423 22.0336 25.8456 21.9878C25.8477 21.9456 25.8412 21.9035 25.8264 21.8639C25.8116 21.8244 25.7889 21.7882 25.7597 21.7577" fill="#C5C8D3"/>
<path d="M25.6738 8.31406C25.4937 7.96211 25.2969 7.61846 25.0863 7.2859C24.657 6.62412 24.1652 6.00512 23.6175 5.43743C22.5035 4.31747 21.1869 3.41934 19.7376 2.79082C19.4605 2.66888 19.225 3.06795 19.4993 3.1982C20.8499 3.87349 22.0594 4.79992 23.0632 5.92796C23.568 6.4714 24.0225 7.05948 24.4212 7.68497C24.6152 7.98982 24.7953 8.30575 24.9616 8.62722C25.1095 8.98941 25.2953 9.33497 25.5158 9.65815C25.5636 9.70197 25.6229 9.73125 25.6867 9.74256C25.7506 9.75387 25.8163 9.74675 25.8762 9.72202C25.9362 9.69729 25.9878 9.65599 26.0251 9.60295C26.0624 9.54992 26.0838 9.48735 26.0867 9.42259C26.0212 9.03008 25.8811 8.65378 25.6738 8.31406" fill="white"/>
<path d="M26.6187 11.2405C26.6187 11.1546 26.591 11.0742 26.5716 10.9883C26.56 10.9434 26.5382 10.9017 26.5079 10.8664C26.4828 10.827 26.4473 10.7953 26.4054 10.7749C26.3655 10.749 26.3197 10.7337 26.2723 10.7306C26.2251 10.7179 26.1754 10.7179 26.1282 10.7306C26.0378 10.7569 25.9606 10.8162 25.9121 10.8969C25.9121 10.9274 25.8871 10.9551 25.876 10.9828C25.8594 11.0464 25.8594 11.1132 25.876 11.1768C25.8927 11.2572 25.9121 11.3375 25.937 11.4179C25.9569 11.4822 25.981 11.5452 26.0091 11.6063L26.034 11.659C26.034 11.6756 26.0589 11.6923 26.07 11.7117C26.0973 11.7547 26.1344 11.7908 26.1781 11.817L26.2502 11.8474C26.2889 11.8599 26.3306 11.8599 26.3693 11.8474C26.3956 11.8482 26.4216 11.8415 26.4442 11.828C26.4697 11.822 26.4928 11.8085 26.5107 11.7892C26.5638 11.7518 26.602 11.6969 26.6187 11.6341C26.6316 11.5683 26.639 11.5015 26.6409 11.4345C26.6392 11.3657 26.6317 11.2971 26.6187 11.2294" fill="white"/>
<path d="M20.4138 22.1125C20.4133 21.9293 20.4671 21.7501 20.5685 21.5975C20.6698 21.4449 20.8142 21.3258 20.9833 21.2553C21.1524 21.1849 21.3386 21.1661 21.5183 21.2015C21.6981 21.2369 21.8632 21.3249 21.993 21.4542C22.1227 21.5836 22.2111 21.7485 22.2471 21.9281C22.283 22.1077 22.2648 22.294 22.1949 22.4633C22.1249 22.6326 22.0063 22.7773 21.854 22.8791C21.7017 22.981 21.5226 23.0353 21.3394 23.0353C21.0947 23.0346 20.8601 22.9372 20.6867 22.7644C20.5134 22.5916 20.4153 22.3573 20.4138 22.1125" fill="white"/>
<path d="M13.6074 9.44576e-05C10.1381 -0.0120718 6.76696 1.15137 4.04361 3.30074C3.97794 3.35104 3.92853 3.41957 3.90156 3.49777C3.87458 3.57598 3.87123 3.66039 3.89192 3.74049C3.91261 3.82058 3.95642 3.89281 4.01789 3.94817C4.07937 4.00352 4.15578 4.03955 4.2376 4.05176C5.17985 4.20142 8.07311 4.78062 9.44491 5.50948C10.2826 5.97357 11.0436 6.56437 11.7008 7.26095C13.6629 9.25623 14.7583 11.9452 14.7492 14.7435C14.7456 17.5766 13.6185 20.2925 11.6153 22.2958C9.61199 24.299 6.89604 25.4261 4.06301 25.4297C3.57727 25.4289 3.09213 25.3955 2.61083 25.33C2.52179 25.3147 2.43021 25.3283 2.34943 25.3687C2.26865 25.4092 2.2029 25.4744 2.16176 25.5548C2.12062 25.6352 2.10624 25.7267 2.12072 25.8158C2.13519 25.905 2.17777 25.9872 2.24225 26.0505C2.74565 26.5773 3.2786 27.0751 3.83853 27.5415C5.20741 28.6779 6.7733 29.5534 8.45832 30.1243C9.58348 30.4846 11.9918 31.0112 13.6074 31.0112C17.7198 31.0112 21.6637 29.3776 24.5715 26.4697C27.4794 23.5618 29.113 19.618 29.113 15.5056C29.113 11.3933 27.4794 7.44941 24.5715 4.54156C21.6637 1.63371 17.7198 9.44576e-05 13.6074 9.44576e-05V9.44576e-05ZM13.6074 30.1521C9.92941 30.1473 6.38703 28.7628 3.68056 26.2722C3.80804 26.2722 3.9383 26.2722 4.06301 26.2722C7.12121 26.2693 10.0534 25.0537 12.2167 22.892C14.3799 20.7303 15.5977 17.7989 15.6028 14.7407C15.6089 11.7206 14.4239 8.81991 12.3049 6.66789C10.4843 4.80269 8.08276 3.61315 5.49578 3.29519C7.8955 1.68961 10.7201 0.837491 13.6074 0.848118C17.4934 0.848118 21.2202 2.3918 23.9679 5.13958C26.7157 7.88736 28.2594 11.6141 28.2594 15.5001C28.2594 19.386 26.7157 23.1128 23.9679 25.8606C21.2202 28.6084 17.4934 30.1521 13.6074 30.1521Z" fill="#C5C8D3"/>
<path d="M16.5228 15.4031C16.5223 15.2013 16.5816 15.0038 16.6934 14.8358C16.8051 14.6677 16.9642 14.5365 17.1505 14.4589C17.3368 14.3813 17.5419 14.3607 17.7399 14.3998C17.9379 14.4388 18.1199 14.5357 18.2628 14.6782C18.4057 14.8207 18.5031 15.0024 18.5427 15.2004C18.5823 15.3983 18.5623 15.6035 18.4852 15.79C18.408 15.9765 18.2773 16.1359 18.1096 16.2481C17.9418 16.3603 17.7445 16.4202 17.5427 16.4202C17.2727 16.4202 17.0137 16.3131 16.8225 16.1225C16.6313 15.9318 16.5236 15.6731 16.5228 15.4031" fill="#202937"/>
<path d="M16.9137 15.0872C16.9137 15.0246 16.9323 14.9634 16.9671 14.9114C17.002 14.8593 17.0515 14.8188 17.1094 14.795C17.1673 14.7712 17.2309 14.7651 17.2923 14.7775C17.3537 14.7899 17.4099 14.8203 17.454 14.8648C17.4981 14.9092 17.528 14.9658 17.5398 15.0272C17.5517 15.0887 17.5451 15.1523 17.5207 15.21C17.4964 15.2677 17.4555 15.3168 17.4031 15.3512C17.3508 15.3856 17.2895 15.4036 17.2269 15.4031C17.1435 15.4024 17.0639 15.3687 17.0052 15.3096C16.9466 15.2504 16.9137 15.1705 16.9137 15.0872" fill="white"/>
<path d="M24.4628 15.4031C24.4622 15.2013 24.5216 15.0038 24.6333 14.8358C24.745 14.6677 24.9041 14.5365 25.0904 14.4589C25.2767 14.3813 25.4819 14.3607 25.6799 14.3998C25.8779 14.4388 26.0599 14.5357 26.2028 14.6782C26.3457 14.8207 26.4431 15.0024 26.4827 15.2004C26.5222 15.3983 26.5022 15.6035 26.4251 15.79C26.348 15.9765 26.2173 16.1359 26.0495 16.2481C25.8817 16.3603 25.6844 16.4202 25.4826 16.4202C25.2126 16.4202 24.9536 16.3131 24.7625 16.1225C24.5713 15.9318 24.4635 15.6731 24.4628 15.4031Z" fill="#202937"/>
<path d="M24.8535 15.0872C24.8535 15.0246 24.8721 14.9634 24.907 14.9114C24.9418 14.8593 24.9913 14.8188 25.0492 14.795C25.1071 14.7712 25.1707 14.7651 25.2321 14.7775C25.2935 14.7899 25.3498 14.8203 25.3938 14.8648C25.4379 14.9092 25.4678 14.9658 25.4796 15.0272C25.4915 15.0887 25.4849 15.1523 25.4605 15.21C25.4362 15.2677 25.3953 15.3168 25.3429 15.3512C25.2906 15.3856 25.2293 15.4036 25.1667 15.4031C25.0834 15.4024 25.0037 15.3687 24.9451 15.3096C24.8864 15.2504 24.8535 15.1705 24.8535 15.0872" fill="white"/>
<path d="M15.7635 17.0049C15.7635 16.6807 16.1626 16.4202 16.6504 16.4202C17.1381 16.4202 17.5372 16.6807 17.5372 17.0049C17.5372 17.3292 17.1409 17.5897 16.6504 17.5897C16.1598 17.5897 15.7635 17.3264 15.7635 17.0049Z" fill="#F2808A"/>
<path d="M25.488 17.0049C25.488 16.6807 25.8843 16.4202 26.3749 16.4202C26.8654 16.4202 27.2617 16.6807 27.2617 17.0049C27.2617 17.3292 26.8626 17.5897 26.3749 17.5897C25.8871 17.5897 25.488 17.3264 25.488 17.0049Z" fill="#F2808A"/>
<path d="M23.5953 16.132C23.5969 16.5541 23.4819 16.9684 23.2627 17.3292C23.0864 17.6373 22.8319 17.8934 22.5248 18.0714C22.2177 18.2495 21.869 18.3433 21.514 18.3433C21.1591 18.3433 20.8104 18.2495 20.5033 18.0714C20.1962 17.8934 19.9416 17.6373 19.7653 17.3292C19.5454 16.9686 19.4293 16.5543 19.43 16.132C19.4289 15.9983 19.4391 15.8648 19.4605 15.7329H23.5593C23.5825 15.8647 23.5946 15.9982 23.5953 16.132" fill="#612D2D"/>
<path d="M23.2628 17.3291C23.0865 17.6372 22.8319 17.8933 22.5248 18.0714C22.2177 18.2494 21.8691 18.3432 21.5141 18.3432C21.1591 18.3432 20.8104 18.2494 20.5033 18.0714C20.1963 17.8933 19.9417 17.6372 19.7654 17.3291C20.2421 16.8905 20.8663 16.6471 21.5141 16.6471C22.1619 16.6471 22.786 16.8905 23.2628 17.3291" fill="#F2808A"/>
</g>
<defs>
<clipPath id="clip0_3213_13795">
<rect width="31" height="31" fill="white"/>
</clipPath>
</defs>
</svg>
