<svg width="31" height="31" viewBox="0 0 31 31" fill="none" xmlns="http://www.w3.org/2000/svg">
<g clip-path="url(#clip0_3213_13823)">
<path d="M17.929 30.9924C18.0772 30.9686 18.2146 30.9001 18.3228 30.796C18.431 30.692 18.5048 30.5573 18.5343 30.4101C18.6342 29.9663 18.8436 29.5545 19.1435 29.2124C19.4434 28.8702 19.8242 28.6087 20.2512 28.4516C20.6781 28.2945 21.1377 28.2468 21.5878 28.3129C22.0379 28.379 22.4643 28.5568 22.828 28.8301C22.9459 28.9232 23.0895 28.978 23.2394 28.9872C23.3893 28.9964 23.5384 28.9595 23.6668 28.8814V28.8814C23.795 28.803 23.8962 28.6873 23.9567 28.5498C24.0172 28.4122 24.0342 28.2594 24.0054 28.1119C23.9273 27.663 23.963 27.2017 24.1094 26.7701C24.2557 26.3386 24.508 25.9507 24.843 25.6419C25.1781 25.3331 25.5853 25.1133 26.0273 25.0026C26.4694 24.8919 26.9321 24.8939 27.3731 25.0083C27.5172 25.0494 27.6704 25.0453 27.8121 24.9967C27.9537 24.9481 28.0772 24.8573 28.1657 24.7365V24.7365C28.2543 24.6149 28.3035 24.469 28.3067 24.3186C28.31 24.1682 28.267 24.0204 28.1837 23.8952C27.9422 23.5102 27.8009 23.0709 27.7726 22.6174C27.7443 22.1639 27.8299 21.7105 28.0216 21.2985C28.2133 20.8865 28.505 20.529 28.8702 20.2586C29.2354 19.9881 29.6625 19.8134 30.1125 19.7502C30.2615 19.7325 30.4015 19.6697 30.5138 19.5702C30.6261 19.4708 30.7054 19.3394 30.7409 19.1936V19.1936C30.7751 19.0476 30.7643 18.8947 30.7098 18.7551C30.6553 18.6154 30.5597 18.4955 30.4357 18.4113C30.0631 18.149 29.7622 17.7975 29.5606 17.3889C29.359 16.9802 29.2631 16.5276 29.2817 16.0723C29.3004 15.617 29.4329 15.1737 29.6672 14.7829C29.9015 14.3921 30.2301 14.0663 30.6229 13.8354C30.7538 13.7621 30.8592 13.6507 30.9252 13.5159C30.9912 13.3812 31.0146 13.2296 30.9923 13.0813V13.0813C30.9685 12.9331 30.9 12.7957 30.796 12.6875C30.6919 12.5793 30.5572 12.5055 30.41 12.476C29.9653 12.3765 29.5527 12.1671 29.2098 11.8668C28.867 11.5666 28.605 11.1851 28.4478 10.7574C28.2906 10.3297 28.2432 9.86933 28.31 9.41854C28.3768 8.96775 28.5556 8.54092 28.83 8.17713C28.9231 8.05926 28.9779 7.91573 28.9871 7.7658C28.9963 7.61588 28.9594 7.46673 28.8813 7.33839V7.33839C28.803 7.21016 28.6872 7.10899 28.5497 7.04846C28.4121 6.98794 28.2593 6.97096 28.1118 6.99982C27.662 7.07914 27.1994 7.04393 26.7667 6.89746C26.334 6.75099 25.9452 6.49797 25.636 6.1617C25.3268 5.82544 25.1073 5.41675 24.9976 4.97332C24.8879 4.52989 24.8915 4.06598 25.0083 3.62434C25.0512 3.47882 25.0481 3.32358 24.9995 3.17987C24.9508 3.03616 24.8589 2.911 24.7364 2.82151V2.82151C24.6129 2.73556 24.4661 2.68949 24.3157 2.68949C24.1653 2.68949 24.0185 2.73556 23.8951 2.82151C23.5106 3.0686 23.0693 3.21316 22.6131 3.24145C22.1569 3.26973 21.7011 3.1808 21.2891 2.98311C20.8763 2.79249 20.5185 2.50026 20.2494 2.13377C19.9802 1.76727 19.8084 1.33849 19.7501 0.887542C19.7322 0.736746 19.6682 0.595166 19.5667 0.482204C19.4652 0.369243 19.3313 0.290429 19.1833 0.256564V0.256564C19.037 0.222621 18.8839 0.233874 18.7442 0.288835C18.6046 0.343796 18.4848 0.439874 18.4009 0.564358C18.1411 0.939498 17.79 1.2423 17.3807 1.44423C16.9715 1.64617 16.5175 1.74058 16.0617 1.71859C15.6057 1.70319 15.1611 1.57197 14.7698 1.33728C14.3785 1.10259 14.0534 0.772164 13.8251 0.377117C13.7535 0.246662 13.6442 0.140868 13.5114 0.0735899C13.3787 0.00631159 13.2288 -0.0193142 13.0812 6.87719e-05V6.87719e-05C12.9301 0.0223666 12.7896 0.0911358 12.6793 0.196842C12.569 0.302548 12.4944 0.439953 12.4656 0.590007C12.3713 1.03839 12.1638 1.4552 11.8631 1.80087C11.5623 2.14653 11.1782 2.40958 10.7471 2.56502C10.3189 2.72381 9.85726 2.77088 9.40579 2.70176C8.95432 2.63265 8.52791 2.44965 8.16679 2.17002C8.04892 2.07692 7.90538 2.0221 7.75546 2.01293C7.60553 2.00377 7.45639 2.04068 7.32805 2.11872V2.11872C7.19982 2.19708 7.09864 2.31282 7.03812 2.45038C6.97759 2.58793 6.96062 2.74072 6.98948 2.8882C7.06811 3.33698 7.03282 3.79832 6.88683 4.22992C6.74084 4.66151 6.48882 5.04954 6.1539 5.35843C5.81897 5.66732 5.41186 5.88717 4.96988 5.99783C4.52791 6.10849 4.06522 6.10642 3.62426 5.99179C3.47874 5.94885 3.3235 5.95192 3.17979 6.00059C3.03608 6.04926 2.91092 6.14115 2.82143 6.26368V6.26368C2.73548 6.38712 2.68941 6.53392 2.68941 6.68433C2.68941 6.83474 2.73548 6.98155 2.82143 7.10498C3.06923 7.48797 3.21509 7.92792 3.24517 8.38309C3.27524 8.83827 3.18854 9.29358 2.99328 9.70584C2.8042 10.1232 2.5114 10.4851 2.14277 10.7572C1.77415 11.0293 1.34198 11.2025 0.887459 11.2602C0.738015 11.2774 0.597425 11.34 0.484614 11.4395C0.371803 11.539 0.292186 11.6707 0.256482 11.8168C0.225051 11.9609 0.237304 12.111 0.291676 12.2481C0.346048 12.3852 0.440067 12.5029 0.561711 12.5863C0.936851 12.8462 1.23965 13.1973 1.44159 13.6065C1.64352 14.0158 1.73794 14.4697 1.71594 14.9255C1.7047 15.3852 1.5757 15.8344 1.34128 16.23C1.10686 16.6257 0.774865 16.9546 0.377034 17.1852C0.24682 17.2571 0.141231 17.3665 0.0739891 17.4991C0.0067473 17.6318 -0.0190373 17.7816 -1.35449e-05 17.9291V17.9291C0.0242311 18.0784 0.0938647 18.2165 0.199418 18.3248C0.304971 18.4332 0.441321 18.5063 0.589925 18.5344C1.03944 18.6297 1.45702 18.8387 1.80278 19.1413C2.14854 19.444 2.41095 19.8302 2.56494 20.2632C2.72095 20.6893 2.76654 21.148 2.69748 21.5965C2.62841 22.045 2.44692 22.4687 2.16993 22.8281C2.07684 22.946 2.02202 23.0895 2.01285 23.2395C2.00368 23.3894 2.0406 23.5385 2.11864 23.6669V23.6669C2.197 23.7951 2.31274 23.8963 2.45029 23.9568C2.58785 24.0173 2.74063 24.0343 2.88812 24.0054C3.3369 23.9268 3.79824 23.9621 4.22983 24.1081C4.66143 24.2541 5.04946 24.5061 5.35835 24.841C5.66723 25.1759 5.88709 25.5831 5.99775 26.025C6.10841 26.467 6.10633 26.9297 5.99171 27.3707C5.95049 27.5151 5.95445 27.6687 6.00305 27.8108C6.05165 27.953 6.14257 28.0768 6.2636 28.1658V28.1658C6.38519 28.2544 6.53101 28.3036 6.68143 28.3068C6.83185 28.31 6.97964 28.2671 7.1049 28.1837C7.48974 27.94 7.92956 27.7967 8.38412 27.7668C8.83867 27.737 9.29345 27.8217 9.70684 28.0131C10.1202 28.2044 10.479 28.4964 10.7504 28.8623C11.0217 29.2282 11.197 29.6563 11.2601 30.1075C11.2778 30.2564 11.3406 30.3965 11.4401 30.5088C11.5395 30.6211 11.671 30.7003 11.8167 30.7359C11.9608 30.7673 12.111 30.7551 12.248 30.7007C12.3851 30.6463 12.5028 30.5523 12.5862 30.4306C12.8484 30.058 13.2 29.7571 13.6086 29.5555C14.0172 29.3539 14.4699 29.258 14.9252 29.2767C15.3805 29.2953 15.8238 29.4278 16.2146 29.6622C16.6054 29.8965 16.9311 30.2251 17.1621 30.6179C17.2357 30.7485 17.3471 30.8537 17.4818 30.9196C17.6164 30.9856 17.7679 31.0091 17.9162 30.9872L17.929 30.9924Z" fill="#FFD809"/>
<path d="M12.1937 29.1815C12.019 28.702 11.7512 28.2618 11.4059 27.8861C11.0606 27.5104 10.6444 27.2066 10.1814 26.9921C9.71832 26.7776 9.21747 26.6567 8.70756 26.6362C8.19766 26.6158 7.68874 26.6963 7.21002 26.873C7.23669 26.3623 7.15952 25.8514 6.98318 25.3713C6.80683 24.8912 6.53497 24.4519 6.18403 24.0798C5.84256 23.6999 5.42764 23.3931 4.96431 23.178C4.50098 22.9628 3.99887 22.8438 3.48827 22.8281C3.70772 22.3668 3.83173 21.866 3.85289 21.3556C3.87405 20.8452 3.7919 20.3358 3.61139 19.8579C3.43982 19.3767 3.17281 18.935 2.82638 18.5595C2.47994 18.184 2.06122 17.8823 1.59534 17.6726C1.9748 17.3309 2.28112 16.9159 2.49581 16.4525C2.71049 15.9892 2.8291 15.4872 2.84447 14.9768C2.87094 14.4665 2.79367 13.956 2.61732 13.4764C2.44098 12.9967 2.16923 12.5578 1.81849 12.1861C2.30019 12.0156 2.74237 11.7492 3.11838 11.4032C3.4944 11.0571 3.79647 10.6386 4.00639 10.1727C4.22558 9.71118 4.34904 9.2101 4.36932 8.69962C4.38959 8.18914 4.30627 7.67985 4.12438 7.20244C4.63514 7.22911 5.14601 7.15194 5.6261 6.9756C6.1062 6.79926 6.54555 6.5274 6.91761 6.17646C7.29569 5.83543 7.60099 5.42155 7.8152 4.95963C8.02941 4.49772 8.14811 3.9973 8.16418 3.48839C8.62547 3.70784 9.12633 3.83186 9.63672 3.85301C10.1471 3.87417 10.6565 3.79203 11.1344 3.61151C11.6156 3.43995 12.0573 3.17294 12.4328 2.8265C12.8083 2.48007 13.11 2.06135 13.3197 1.59546C13.6618 1.97512 14.0773 2.28154 14.541 2.49622C15.0048 2.71091 15.5072 2.82942 16.0181 2.84459C16.528 2.87101 17.038 2.7937 17.5173 2.61735C17.9965 2.44101 18.435 2.16928 18.8062 1.81861C18.9767 2.30031 19.2431 2.74249 19.5891 3.11851C19.9352 3.49452 20.3537 3.79659 20.8196 4.00651C21.2811 4.2257 21.7822 4.34916 22.2927 4.36944C22.8032 4.38972 23.3125 4.3064 23.7899 4.1245C23.7632 4.63526 23.8404 5.14613 24.0167 5.62622C24.193 6.10632 24.4649 6.54567 24.8158 6.91773C25.1581 7.29704 25.5736 7.60306 26.0374 7.81731C26.5011 8.03156 27.0035 8.1496 27.5142 8.1643C27.2992 8.62699 27.1777 9.12755 27.1565 9.63729C27.1354 10.147 27.215 10.6559 27.3908 11.1349C27.5667 11.6138 27.8353 12.0533 28.1813 12.4282C28.5273 12.8032 28.9438 13.1062 29.4071 13.3198C29.032 13.6653 28.7286 14.0813 28.5144 14.5441C28.3001 15.0068 28.1792 15.5073 28.1585 16.0168C28.1377 16.5263 28.2176 17.035 28.3936 17.5136C28.5696 17.9922 28.8381 18.4315 29.184 18.8063C28.7045 18.981 28.2643 19.2488 27.8886 19.5941C27.5128 19.9394 27.209 20.3556 26.9945 20.8186C26.78 21.2817 26.6591 21.7825 26.6387 22.2924C26.6183 22.8023 26.6987 23.3113 26.8755 23.79C26.3651 23.7673 25.8552 23.8457 25.3751 24.0206C24.895 24.1956 24.4543 24.4637 24.0782 24.8096C23.7021 25.1554 23.398 25.5722 23.1835 26.0359C22.9689 26.4996 22.8481 27.0012 22.828 27.5117C22.3653 27.2968 21.8647 27.1753 21.355 27.1541C20.8453 27.1329 20.3364 27.2125 19.8574 27.3884C19.3785 27.5642 18.939 27.8328 18.5641 28.1788C18.1891 28.5248 17.8861 28.9414 17.6725 29.4047C17.3308 29.0252 16.9157 28.7189 16.4524 28.5042C15.9891 28.2895 15.4871 28.1709 14.9767 28.1555H14.8074C13.8367 28.1488 12.9007 28.5162 12.1937 29.1815V29.1815Z" fill="#FFFEA8"/>
<path d="M26.3925 20.6549C29.2132 14.7039 26.6755 7.59297 20.7244 4.77229C14.7734 1.95161 7.66248 4.48928 4.84179 10.4403C2.02111 16.3914 4.55879 23.5023 10.5098 26.323C16.4609 29.1437 23.5718 26.606 26.3925 20.6549Z" fill="#FFD809"/>
<path d="M16.6109 26.5979C22.7116 26.0491 27.2123 20.6587 26.6635 14.558C26.1148 8.45735 20.7243 3.95663 14.6236 4.5054C8.52297 5.05416 4.02225 10.4446 4.57102 16.5453C5.11978 22.6459 10.5102 27.1467 16.6109 26.5979Z" fill="#FFFEA8"/>
<g style="mix-blend-mode:multiply">
<path d="M21.6061 5.471C11.954 6.85678 8.00241 20.881 14.1292 27.2425C13.6779 27.1934 13.2299 27.1178 12.7875 27.0161C9.76869 26.2849 7.15979 24.3964 5.52539 21.7594C3.89099 19.1224 3.36255 15.949 4.05444 12.926C4.74632 9.90304 6.60288 7.2736 9.22232 5.60677C11.8418 3.93994 15.0134 3.3698 18.0507 4.01974C19.308 4.30408 20.5094 4.79448 21.6061 5.471V5.471Z" fill="#FFE1AD"/>
</g>
<path d="M10.2957 15.1461C10.2957 14.8485 10.665 14.6049 11.1164 14.6049C11.5679 14.6049 11.9372 14.8614 11.9372 15.1461C11.9372 15.4308 11.5704 15.6873 11.1164 15.6873C10.6624 15.6873 10.2957 15.4462 10.2957 15.1461Z" fill="#F2808A"/>
<path d="M19.2961 15.1461C19.2961 14.8485 19.6629 14.6049 20.1169 14.6049C20.5709 14.6049 20.9377 14.8614 20.9377 15.1461C20.9377 15.4308 20.5709 15.6873 20.1169 15.6873C19.6629 15.6873 19.2961 15.4462 19.2961 15.1461Z" fill="#F2808A"/>
<path d="M12.7119 14.2894C12.6449 14.289 12.5802 14.2647 12.5295 14.221C12.4787 14.1773 12.4452 14.117 12.4348 14.0508C12.4133 13.9331 12.3523 13.8262 12.2618 13.7479C12.1714 13.6695 12.0569 13.6244 11.9373 13.6199C11.8177 13.6154 11.7001 13.6519 11.6041 13.7232C11.508 13.7946 11.4391 13.8966 11.4089 14.0124C11.3929 14.0848 11.3488 14.148 11.2862 14.1879C11.2237 14.2278 11.1479 14.2412 11.0754 14.2253C11.003 14.2093 10.9398 14.1652 10.8999 14.1026C10.86 14.0401 10.8465 13.9643 10.8625 13.8918C10.9181 13.6442 11.0586 13.4239 11.2595 13.269C11.4604 13.114 11.7092 13.0342 11.9628 13.0433C12.2164 13.0524 12.4588 13.15 12.648 13.319C12.8373 13.488 12.9615 13.7178 12.9991 13.9688C13.0094 14.0421 12.9905 14.1166 12.9463 14.1762C12.9022 14.2357 12.8364 14.2754 12.7632 14.2868H12.7221" fill="#202937"/>
<path d="M20.0065 14.2894C19.9396 14.289 19.8749 14.2647 19.8242 14.221C19.7734 14.1773 19.7399 14.117 19.7295 14.0508C19.708 13.9331 19.647 13.8262 19.5565 13.7479C19.4661 13.6695 19.3516 13.6244 19.232 13.6199C19.1124 13.6154 18.9948 13.6519 18.8987 13.7232C18.8027 13.7946 18.7338 13.8966 18.7035 14.0124C18.6956 14.0482 18.6807 14.0822 18.6597 14.1123C18.6386 14.1424 18.6119 14.1681 18.5809 14.1879C18.5499 14.2076 18.5154 14.2211 18.4792 14.2275C18.4431 14.234 18.406 14.2332 18.3701 14.2253C18.3342 14.2173 18.3003 14.2024 18.2701 14.1814C18.24 14.1604 18.2144 14.1336 18.1946 14.1026C18.1748 14.0717 18.1613 14.0371 18.1549 14.0009C18.1485 13.9648 18.1493 13.9277 18.1572 13.8918C18.2128 13.6442 18.3532 13.4239 18.5542 13.269C18.7551 13.114 19.0039 13.0342 19.2575 13.0433C19.511 13.0524 19.7534 13.15 19.9427 13.319C20.132 13.488 20.2562 13.7178 20.2938 13.9688C20.2993 14.0052 20.2975 14.0423 20.2886 14.078C20.2796 14.1136 20.2638 14.1472 20.2419 14.1768C20.2199 14.2063 20.1924 14.2313 20.1608 14.2501C20.1292 14.269 20.0942 14.2815 20.0578 14.2868H20.0065" fill="#202937"/>
<path d="M17.5442 14.469C17.5457 14.8596 17.4392 15.2431 17.2364 15.577C17.0733 15.8622 16.8376 16.0992 16.5534 16.264C16.2692 16.4288 15.9465 16.5156 15.6179 16.5156C15.2894 16.5156 14.9667 16.4288 14.6825 16.264C14.3983 16.0992 14.1626 15.8622 13.9995 15.577C13.7967 15.2431 13.6901 14.8596 13.6917 14.469C13.6914 14.3476 13.7026 14.2265 13.725 14.1073H17.5109C17.5325 14.2292 17.5437 14.3528 17.5442 14.4767" fill="#612D2D"/>
<path d="M17.2365 15.577C17.0728 15.8615 16.837 16.0979 16.5528 16.2622C16.2687 16.4265 15.9462 16.513 15.618 16.513C15.2898 16.513 14.9673 16.4265 14.6832 16.2622C14.399 16.0979 14.1632 15.8615 13.9995 15.577C14.4408 15.1711 15.0184 14.9458 15.618 14.9458C16.2176 14.9458 16.7952 15.1711 17.2365 15.577" fill="#F2808A"/>
<path d="M14.551 5.28636C14.1457 5.18632 13.6327 5.39921 13.2454 5.5172C12.815 5.649 12.392 5.80398 11.9783 5.98146C11.1608 6.33194 10.3862 6.77516 9.66987 7.30241C8.23976 8.37118 7.06566 9.74505 6.23283 11.3242C6.08663 11.5961 6.48933 11.8372 6.64835 11.5807C7.49308 10.1029 8.65889 8.83369 10.0597 7.8667C10.746 7.38195 11.48 6.96856 12.2502 6.63296C12.6369 6.46813 13.0325 6.32513 13.4352 6.20461C13.6199 6.14818 13.8071 6.09945 13.9969 6.05328C14.2154 6.02455 14.4267 5.95586 14.6202 5.85065C14.671 5.8188 14.7116 5.77302 14.7372 5.71877C14.7627 5.66451 14.7721 5.60406 14.7643 5.54461C14.7564 5.48516 14.7317 5.42922 14.693 5.38343C14.6542 5.33765 14.6032 5.30395 14.5458 5.28636" fill="white"/>
<path d="M17.3776 5.46335C17.3522 5.40762 17.3112 5.36042 17.2596 5.32741C17.0782 5.21122 16.8671 5.14978 16.6517 5.15043C16.4806 5.1402 16.309 5.14449 16.1387 5.16325C16.0432 5.1657 15.9519 5.20312 15.8822 5.26842C15.8478 5.30167 15.8204 5.34152 15.8017 5.38558C15.783 5.42965 15.7733 5.47704 15.7733 5.52491C15.7733 5.57279 15.783 5.62017 15.8017 5.66424C15.8204 5.70831 15.8478 5.74815 15.8822 5.78141C15.9153 5.81578 15.9552 5.84289 15.9994 5.861C16.0435 5.8791 16.091 5.88781 16.1387 5.88657C16.304 5.86945 16.4704 5.86516 16.6363 5.87375C16.8195 5.89341 17.0046 5.88476 17.1852 5.8481C17.2382 5.83265 17.2856 5.80212 17.3216 5.76022C17.3576 5.71833 17.3806 5.66687 17.3878 5.61212C17.3968 5.56185 17.3905 5.51005 17.3699 5.46335" fill="white"/>
</g>
<defs>
<clipPath id="clip0_3213_13823">
<rect width="31" height="31" fill="white"/>
</clipPath>
</defs>
</svg>
