<svg xmlns="http://www.w3.org/2000/svg" viewBox="0 0 136.92 125.15">
  <path d="m136.79,110.98c-.38-2.47-1.42-4.14-2.73-6.25-6.36-10.24-15.05-18.33-25.13-23.4-2.96-1.49-6.57-.29-8.05,2.67-1.49,2.96-.29,6.57,2.67,8.05,8.1,4.07,15.13,10.64,20.32,19.01.39.63.82,1.32,1.01,1.69-.04.12-.12.25-.19.35-.55.05-1.66.05-2.73.05-3.31,0-6,2.69-6,6s2.69,6,6,6c3.13,0,5.2,0,7.5-.98,4.94-2.1,8.16-7.89,7.34-13.19Zm-83.98-35.55c-19.29,0-37.01,10-48.62,27.43l4.99,3.33-5-3.32C1.62,106.71-.22,109.48.02,113.6c.2,3.38,2.15,7.02,4.85,9.06,3.29,2.49,6.85,2.49,12.24,2.49h71.38c5.39,0,8.96,0,12.24-2.49,2.7-2.04,4.65-5.68,4.85-9.06.25-4.12-1.6-6.89-4.16-10.73-11.61-17.43-29.33-27.43-48.62-27.43Zm40.7,37.56c-.9.15-3.07.15-5.02.15H17.12c-1.94,0-4.11,0-5.02-.15-.02-.03-.03-.06-.05-.09.3-.67,1.26-2.1,2.11-3.39h0c9.35-14.04,23.43-22.09,38.63-22.09s29.29,8.05,38.63,22.08c.86,1.29,1.81,2.72,2.12,3.39-.01.03-.03.06-.05.09Zm-40.7-44.42c18.91,0,34.29-15.38,34.29-34.29S71.71,0,52.81,0,18.52,15.38,18.52,34.29s15.38,34.29,34.29,34.29Zm0-56.57c12.29,0,22.29,10,22.29,22.29s-10,22.29-22.29,22.29-22.29-10-22.29-22.29,10-22.29,22.29-22.29Zm38.19,2.31c7.64,3.8,12.39,11.45,12.39,19.97s-4.75,16.18-12.39,19.97c-2.97,1.47-4.18,5.08-2.7,8.04,1.05,2.11,3.17,3.33,5.38,3.33.9,0,1.81-.2,2.67-.63,11.75-5.84,19.05-17.61,19.05-30.72s-7.3-24.88-19.04-30.72c-2.97-1.47-6.57-.27-8.04,2.7-1.47,2.97-.26,6.57,2.7,8.04Z" />
</svg>