<svg xmlns="http://www.w3.org/2000/svg" viewBox="0 0 141.46 146.74">
  <path d="m100.09,84.58c-3.21-.83-6.48,1.11-7.31,4.31-2.59,10.05-11.66,17.07-22.05,17.07s-19.47-7.02-22.05-17.07c-.83-3.21-4.1-5.14-7.31-4.31-3.21.83-5.14,4.1-4.31,7.31,3.95,15.36,17.8,26.08,33.67,26.08s29.72-10.73,33.67-26.08c.83-3.21-1.11-6.48-4.31-7.31Zm40.62-28.61c-.67-2.4-1.76-4.63-3.24-6.63-1.67-2.25-3.63-3.78-7.21-6.56L81.48,4.84c-2.96-2.3-4.74-3.69-7.3-4.38-2.25-.61-4.64-.61-6.89,0-2.56.69-4.34,2.08-7.3,4.38L11.2,42.78c-3.57,2.78-5.54,4.31-7.21,6.56-1.48,2-2.57,4.23-3.24,6.63-.75,2.7-.75,5.19-.75,9.72v52.04c0,8.72,0,13.53,2.22,17.89,1.97,3.86,5.05,6.94,8.91,8.91,4.36,2.22,9.17,2.22,17.89,2.22h83.43c8.72,0,13.53,0,17.89-2.22,3.86-1.97,6.94-5.05,8.91-8.91,2.22-4.36,2.22-9.17,2.22-17.89v-52.04c0-4.53,0-7.02-.75-9.72Zm-11.25,61.75c0,6.64,0,10.64-.92,12.44-.81,1.59-2.07,2.85-3.66,3.66-1.79.91-5.8.91-12.44.91H29.02c-6.64,0-10.64,0-12.44-.91-1.59-.81-2.86-2.08-3.67-3.66-.91-1.79-.91-5.8-.91-12.44v-52.04c0-3.46,0-5.37.31-6.48.28-.99.72-1.9,1.33-2.73.68-.93,2.19-2.1,4.93-4.22L67.35,14.31c1.33-1.04,2.71-2.11,3.07-2.27.2-.06.42-.06.54-.03.44.19,1.82,1.26,3.15,2.3l48.78,37.94c2.73,2.13,4.24,3.3,4.93,4.23.61.82,1.06,1.74,1.33,2.72.31,1.11.31,3.02.31,6.48v52.04Z" />
</svg>
