<svg xmlns="http://www.w3.org/2000/svg" viewBox="0 0 134.32 134.32">
  <path d="m51.45,79.3l5.08-5.08c2.34-2.34,2.34-6.14,0-8.49s-6.14-2.34-8.49,0l-5.08,5.08-4.9-4.9c-2.34-2.34-6.14-2.34-8.49,0s-2.34,6.14,0,8.49l4.9,4.9-5.09,5.09c-2.34,2.34-2.34,6.14,0,8.49,1.17,1.17,2.71,1.76,4.24,1.76s3.07-.59,4.24-1.76l5.09-5.09,5.27,5.27c1.17,1.17,2.71,1.76,4.24,1.76s3.07-.59,4.24-1.76c2.34-2.34,2.34-6.14,0-8.49l-5.27-5.27Zm25.13-5.91h-.06c-3.31,0-5.97,2.69-5.97,6s2.72,6,6.03,6,6-2.69,6-6-2.69-6-6-6Zm24.1,0h-.06c-3.31,0-5.97,2.69-5.97,6s2.72,6,6.03,6,6-2.69,6-6-2.69-6-6-6Zm-12.11,11.99c-3.31,0-6,2.69-6,6v.12c0,3.31,2.69,6,6,6s6-2.69,6-6v-.12c0-3.31-2.69-6-6-6Zm0-24.1c-3.31,0-6,2.69-6,6v.12c0,3.31,2.69,6,6,6s6-2.69,6-6v-.12c0-3.31-2.69-6-6-6Zm-3.06-36.82h-18.47s-.12-.07-.12-.12c0-.09.05-.12.06-.12h.18c6.67,0,11.99-5.25,12.12-12l.06-6.18c.03-3.31-2.63-6.03-5.94-6.06-.02,0-.04,0-.06,0-3.29,0-5.97,2.65-6,5.94l-.06,6.13s-.01.16-.12.16h-.18c-6.65,0-12.06,5.44-12.06,12.12,0,.04,0,.08,0,.12h-6.12C15.05,24.46,0,39.52,0,73.28v12.23c0,33.76,15.05,48.81,48.81,48.81h36.7c33.76,0,48.81-15.05,48.81-48.81v-12.23c0-33.76-15.05-48.81-48.81-48.81Zm36.81,61.04c0,27.18-9.63,36.81-36.81,36.81h-36.7c-27.18,0-36.81-9.63-36.81-36.81v-12.23c0-27.18,9.63-36.81,36.81-36.81h18.22s0,0,0,0h6.12s0,0,0,0h12.34c27.18,0,36.81,9.63,36.81,36.81v12.23Z" />
</svg>
