<svg xmlns="http://www.w3.org/2000/svg" viewBox="0 0 1022.43 204.13">
    <path d="m63.99,62.72C29.02,61.45-.63,86.73.01,121.8v57.84c0,4.69,1.86,9.18,5.16,12.5,3.3,3.31,7.78,5.18,12.45,5.18,2.31,0,4.6-.46,6.74-1.35,2.14-.89,4.07-2.19,5.71-3.83,1.63-1.64,2.93-3.59,3.81-5.73.88-2.14,1.34-4.44,1.33-6.76v-57.84c0-7.66,3.03-15.01,8.43-20.43,5.4-5.42,12.72-8.46,20.35-8.46s14.96,3.04,20.35,8.46c5.4,5.42,8.43,12.77,8.43,20.43v57.84c0,2.32.45,4.62,1.33,6.76.88,2.14,2.18,4.09,3.81,5.73,1.63,1.64,3.57,2.94,5.71,3.83,2.14.89,4.42,1.35,6.73,1.35,2.31,0,4.6-.45,6.73-1.33,2.13-.88,4.07-2.18,5.71-3.82,1.64-1.64,2.93-3.58,3.82-5.72.89-2.14,1.34-4.43,1.35-6.75v-57.89c.55-35.09-28.83-60.42-63.98-59.08Zm181.01,9.31c-17.06-11.93-50.17-12.55-68.99-.78-30.94,17.14-40.9,63.54-22.58,93.83,13.74,21.97,37.8,32.4,64.71,32.24l21.8.09c3.99,0,7.82-1.59,10.64-4.42,2.82-2.83,4.41-6.67,4.41-10.68,0-4-1.59-7.83-4.41-10.66-2.82-2.83-6.64-4.41-10.63-4.41h-21.46c-16.53.3-32.68-7.22-36.64-24.25h77.85c3.03.03,5.96-1.12,8.16-3.21,2.2-2.09,3.5-4.96,3.63-8,.55-23.12-7.28-46.9-26.49-59.75Zm-63.34,47.16c3.27-35.81,52.73-37.11,54.73,0h-54.73Zm406.84-53.39c-2.31,0-4.6.45-6.74,1.33-2.13.88-4.08,2.18-5.72,3.82-1.63,1.64-2.93,3.58-3.81,5.72-.89,2.14-1.34,4.44-1.34,6.76v73.4c-.14,3.46-1.62,6.73-4.11,9.13-2.49,2.4-5.81,3.74-9.26,3.74s-6.77-1.34-9.26-3.74c-2.49-2.4-3.96-5.67-4.11-9.13v-45.39c1.1-28.86-20.15-49.62-48.56-48.72-28.39-.92-49.64,19.88-48.54,48.72v45.39c-.14,3.46-1.61,6.73-4.1,9.13-2.49,2.4-5.81,3.74-9.26,3.74s-6.77-1.34-9.26-3.74c-2.49-2.4-3.96-5.67-4.1-9.13v-73.36c0-4.69-1.86-9.18-5.16-12.5-3.3-3.31-7.78-5.18-12.45-5.18-4.67,0-9.14,1.87-12.44,5.18-3.3,3.31-5.15,7.81-5.15,12.49v68.21c-1.33,29.3,20.66,49.46,48.54,48.74,27.8.69,49.78-19.58,48.57-48.74v-45.39c-.06-2.42.56-4.81,1.78-6.89,6.62-11.49,25.28-6.62,24.94,6.89v45.39c-.36,9.56,1.96,19.02,6.69,27.32,17.26,28.7,66.77,28.82,83.9,0,4.37-7.2,6.55-16.31,6.55-27.32v-68.21c0-4.69-1.85-9.18-5.16-12.5-3.3-3.31-7.78-5.18-12.45-5.18Zm43.28,30.73c-27.25,45.8,7.78,105.71,61.39,103.9,53.65,1.82,88.66-58.1,61.41-103.9-24.66-44.95-98.14-44.95-122.8,0Zm61.39,73.72c-46.35.99-46.35-78.32,0-77.35,46.37-1.01,46.37,78.34,0,77.35Zm156.69-101.99c-1.63-1.63-3.84-2.55-6.14-2.55h-27.48c-11.65,0-20.77,3.33-27.36,9.93-6.59,6.7-9.89,15.89-9.89,27.58v76.44c0,2.32.45,4.62,1.33,6.76.88,2.14,2.18,4.09,3.81,5.73,1.63,1.64,3.57,2.94,5.71,3.83,2.12.88,4.41,1.34,6.7,1.34,4.66,0,9.12-1.87,12.42-5.18,3.3-3.31,5.16-7.81,5.16-12.5v-75.4c-.03-1.1.17-2.2.59-3.22.42-1.02,1.04-1.94,1.83-2.71,1.55-1.5,3.64-2.32,5.79-2.3h21.38c2.3,0,4.5-.91,6.13-2.54,1.62-1.63,2.54-3.84,2.55-6.14v-12.92c0-2.31-.92-4.53-2.55-6.16Zm-53.28,129.06s-.02,0-.03,0-.02,0-.03,0h.07Zm-444.19-30.18h-13.49c-1.08,0-2.15-.22-3.14-.64-1-.42-1.9-1.04-2.65-1.82-.78-.75-1.4-1.65-1.82-2.64-.42-1-.63-2.07-.63-3.15v-62.83h21.71c1.97,0,3.93-.39,5.75-1.15,1.82-.76,3.48-1.87,4.87-3.27,1.4-1.4,2.5-3.06,3.26-4.89.75-1.83,1.14-3.79,1.14-5.77s-.39-3.94-1.14-5.77c-.76-1.83-1.86-3.49-3.26-4.89-1.39-1.4-3.05-2.51-4.87-3.27-1.82-.76-3.78-1.15-5.75-1.15h-21.71v-15.35c.02-3.01-.73-5.98-2.19-8.61-1.45-2.64-3.55-4.85-6.1-6.44-1.43,4.44-4.22,8.32-7.98,11.06-3.76,2.75-8.3,4.22-12.95,4.22-2.04-.01-4.07-.29-6.05-.83v15.86h-7.33c-3.98,0-7.8,1.59-10.62,4.42-2.82,2.83-4.4,6.66-4.4,10.66s1.58,7.83,4.4,10.66c2.82,2.83,6.64,4.42,10.62,4.42h7.33v63.96c0,22.94,14.34,37.71,37.32,37.39h19.65c1.98,0,3.93-.39,5.76-1.14,1.83-.76,3.49-1.87,4.89-3.27,1.4-1.4,2.51-3.07,3.26-4.9.76-1.83,1.14-3.8,1.14-5.78,0-4-1.58-7.83-4.4-10.66-2.82-2.83-6.64-4.42-10.62-4.42Z" fill="#fff" />
    <path d="m887.26,167.76c-.1.1-.18.2-.27.3-1.63,1.7-2.94,3.68-3.84,5.86-.48,1.15-.84,2.35-1.08,3.56s-.36,2.46-.36,3.71c0,2.5.49,4.97,1.44,7.27.95,2.3,2.35,4.4,4.11,6.16,1.75,1.77,3.84,3.17,6.14,4.12,2.3.96,4.75,1.45,7.24,1.45s4.95-.49,7.24-1.45c2.3-.96,4.39-2.36,6.14-4.12l30.95-31.16h0s.7-14.68.7-14.68l.65-13.54h0s-28.1,1.36-28.1,1.36l-30.98,31.16Zm26.77-99.28c-1.76-1.77-3.84-3.17-6.14-4.12-1.15-.48-2.34-.84-3.55-1.08-1.21-.24-2.45-.37-3.69-.37s-2.48.12-3.69.37c-.61.12-1.21.27-1.8.45-.59.18-1.18.39-1.75.63-.57.24-1.14.51-1.68.8-.55.29-1.08.61-1.59.96-1.03.69-1.99,1.48-2.87,2.36-.44.44-.86.9-1.25,1.38-.39.48-.76.98-1.11,1.5-.69,1.03-1.28,2.13-1.75,3.28-.48,1.15-.84,2.35-1.08,3.56s-.36,2.46-.36,3.71.12,2.49.36,3.71.6,2.41,1.08,3.56c.47,1.15,1.06,2.25,1.75,3.28.34.52.71,1.02,1.11,1.5.39.48.81.94,1.25,1.38l30.98,31.16,28.1,1.36-1.35-28.2-30.95-31.19Zm98.92,26.87c.44-.44.86-.9,1.25-1.38,1.18-1.44,2.14-3.05,2.85-4.78.48-1.15.84-2.35,1.08-3.56.24-1.22.37-2.46.37-3.71s-.12-2.49-.37-3.71c-.24-1.22-.6-2.41-1.08-3.56-.71-1.73-1.67-3.34-2.85-4.78-.39-.48-.81-.94-1.25-1.38-1.32-1.32-2.82-2.44-4.46-3.32-.55-.29-1.11-.56-1.68-.8-1.72-.72-3.53-1.17-5.38-1.36-.62-.06-1.24-.09-1.86-.09s-1.24.03-1.86.09c-1.85.18-3.66.64-5.39,1.36-2.3.96-4.39,2.36-6.14,4.12l-31.05,31.19-1.35,28.2,28.11-1.36,31.05-31.16Zm4.1,78.57c-.9-2.18-2.21-4.16-3.83-5.86-.09-.1-.18-.2-.27-.3l-31.05-31.16-28.11-1.36h0s1.35,28.22,1.35,28.22l31.05,31.16c1.75,1.77,3.84,3.17,6.14,4.12,2.3.96,4.76,1.45,7.24,1.45s4.95-.49,7.24-1.45c2.3-.96,4.39-2.36,6.14-4.12,1.76-1.76,3.16-3.86,4.1-6.16.95-2.3,1.45-4.78,1.45-7.27,0-1.25-.12-2.49-.37-3.71-.24-1.22-.6-2.41-1.08-3.56ZM323.52,0c-4.39,0-7.95,3.57-7.95,7.97s3.56,7.97,7.95,7.97,7.95-3.57,7.95-7.97-3.56-7.97-7.95-7.97Zm-22,15.93c-7.03,0-12.73,5.72-12.73,12.78s5.7,12.78,12.73,12.78,12.73-5.72,12.73-12.78-5.7-12.78-12.73-12.78Z" fill="#ffb243" />
</svg>