<svg width="28" height="28" viewBox="0 0 28 28" fill="none" xmlns="http://www.w3.org/2000/svg">
<circle cx="14" cy="14" r="14" fill="#FFD809"/>
<g clip-path="url(#clip0_972_10435)">
<path d="M13.9922 13.9941L6 9.95122V8.99902C6 8.71805 6.09886 8.4813 6.29659 8.28878C6.49431 8.09626 6.72846 8 6.99902 8H20.9854C21.2559 8 21.4901 8.09626 21.6878 8.28878C21.8855 8.4813 21.9844 8.71805 21.9844 8.99902V9.95122L13.9922 13.9941ZM13.4927 14.9932H14.4917L21.9844 11.1063V18.9893C21.9844 19.2598 21.8855 19.494 21.6878 19.6917C21.4901 19.8894 21.2559 19.9883 20.9854 19.9883H6.99902C6.72846 19.9883 6.49431 19.8894 6.29659 19.6917C6.09886 19.494 6 19.2598 6 18.9893V11.1063L13.4927 14.9932Z" fill="#3F476C"/>
</g>
<defs>
<clipPath id="clip0_972_10435">
<rect width="16" height="16" fill="white" transform="translate(6 6)"/>
</clipPath>
</defs>
</svg>
