<svg width="28" height="28" viewBox="0 0 28 28" fill="none" xmlns="http://www.w3.org/2000/svg">
<circle cx="14" cy="14" r="14" fill="#FFD809"/>
<g clip-path="url(#clip0_972_10424)">
<path d="M17 6C16.2657 5.99991 15.5405 6.16154 14.8757 6.4734C14.211 6.78527 13.6231 7.23972 13.1538 7.80445C12.6845 8.36919 12.3454 9.03035 12.1605 9.74095C11.9756 10.4516 11.9495 11.1942 12.084 11.916L6 18V21C6 21.2652 6.10536 21.5196 6.29289 21.7071C6.48043 21.8946 6.73478 22 7 22H8V21H10V19H12V17H14L15.298 15.702C15.9841 15.9501 16.7162 16.0451 17.443 15.9802C18.1697 15.9153 18.8734 15.6922 19.5047 15.3264C20.1361 14.9607 20.6797 14.4612 21.0975 13.8631C21.5153 13.2649 21.7971 12.5826 21.9231 11.8639C22.0492 11.1453 22.0165 10.4078 21.8272 9.70314C21.638 8.9985 21.2968 8.34381 20.8277 7.78502C20.3586 7.22624 19.7728 6.77689 19.1116 6.46852C18.4503 6.16016 17.7296 6.00024 17 6ZM18.498 11.002C18.301 11.0019 18.1058 10.9631 17.9238 10.8876C17.7418 10.8121 17.5764 10.7015 17.4371 10.5622C17.2978 10.4228 17.1874 10.2573 17.112 10.0753C17.0367 9.89318 16.9979 9.69805 16.998 9.501C16.9981 9.30395 17.0369 9.10885 17.1124 8.92682C17.1879 8.7448 17.2985 8.57942 17.4378 8.44013C17.5772 8.30084 17.7427 8.19037 17.9247 8.11503C18.1068 8.03968 18.302 8.00093 18.499 8.001C18.897 8.00113 19.2786 8.15935 19.5599 8.44084C19.8412 8.72233 19.9991 9.10404 19.999 9.502C19.9989 9.89996 19.8407 10.2816 19.5592 10.5629C19.2777 10.8442 18.896 11.0021 18.498 11.002Z" fill="#3F476C"/>
</g>
<defs>
<clipPath id="clip0_972_10424">
<rect width="16" height="16" fill="white" transform="translate(6 6)"/>
</clipPath>
</defs>
</svg>
