<svg width="28" height="28" viewBox="0 0 28 28" fill="none" xmlns="http://www.w3.org/2000/svg">
<circle cx="14" cy="14" r="14" fill="#FFD809"/>
<g clip-path="url(#clip0_454_2032)">
<path d="M22.4495 11.0637L17.0438 10.278L14.6273 5.37899C14.5613 5.24485 14.4527 5.13627 14.3186 5.07027C13.9822 4.9042 13.5734 5.04259 13.4052 5.37899L10.9887 10.278L5.58291 11.0637C5.43387 11.0849 5.29761 11.1552 5.19329 11.2617C5.06716 11.3913 4.99766 11.5657 5.00006 11.7465C5.00246 11.9274 5.07655 12.0999 5.20606 12.2261L9.1172 16.0393L8.19317 21.4238C8.1715 21.549 8.18537 21.6779 8.23318 21.7956C8.281 21.9134 8.36086 22.0154 8.46371 22.0901C8.56656 22.1648 8.68829 22.2092 8.81508 22.2183C8.94187 22.2273 9.06866 22.2006 9.18107 22.1413L14.0162 19.5992L18.8514 22.1413C18.9834 22.2116 19.1367 22.235 19.2836 22.2094C19.6541 22.1456 19.9032 21.7943 19.8393 21.4238L18.9153 16.0393L22.8264 12.2261C22.9329 12.1218 23.0031 11.9855 23.0244 11.8365C23.0819 11.4639 22.8221 11.119 22.4495 11.0637Z" fill="#121925"/>
</g>
<defs>
<clipPath id="clip0_454_2032">
<rect width="18" height="18" fill="white" transform="translate(5 5)"/>
</clipPath>
</defs>
</svg>
