<svg width="18" height="18" viewBox="0 0 18 18" fill="none" xmlns="http://www.w3.org/2000/svg">
<g opacity="0.8" clip-path="url(#clip0_454_1932)">
<circle cx="8.95715" cy="4.5" r="4.5" fill="#DEDFE4"/>
<path fill-rule="evenodd" clip-rule="evenodd" d="M1.19416 10.2684C1.93363 9.44679 2.83179 8.80329 3.82171 8.36772C4.99502 9.92316 6.85864 10.9286 8.9571 10.9286C11.0795 10.9286 12.9616 9.90011 14.1323 8.31433C15.2008 8.72031 16.1934 9.32522 17.0536 10.1072C17.629 10.6304 17.9571 11.372 17.9571 12.1497V15.0001C17.9571 16.6569 16.614 18.0001 14.9571 18.0001H3.59998C1.94312 18.0001 0.599976 16.6569 0.599976 15.0001V11.8168C0.599976 11.245 0.811634 10.6935 1.19416 10.2684ZM8.36879 12.4854L7.32193 11.8872C6.65527 11.5063 5.82579 11.9876 5.82579 12.7555V13.9543C5.82579 14.7221 6.65527 15.2035 7.32193 14.8225L8.89068 13.9261C8.93267 13.9323 8.97563 13.9355 9.01934 13.9355C9.17141 13.9355 9.31437 13.8965 9.43879 13.828L10.6582 14.641C11.3228 15.084 12.2129 14.6076 12.2129 13.8089V12.9008C12.2129 12.1021 11.3228 11.6257 10.6582 12.0688L9.78574 12.6504C9.63841 12.3784 9.35046 12.1936 9.01934 12.1936C8.76066 12.1936 8.52831 12.3064 8.36879 12.4854Z" fill="#DEDFE4"/>
</g>
<defs>
<clipPath id="clip0_454_1932">
<rect width="18" height="18" fill="white"/>
</clipPath>
</defs>
</svg>
