<svg width="18" height="18" viewBox="0 0 18 18" fill="none" xmlns="http://www.w3.org/2000/svg">
<g opacity="0.8">
<path d="M14.25 9C14.25 12.7267 13.0905 16.5 10.875 16.5C8.6595 16.5 7.5 12.7267 7.5 9C7.5 5.2725 8.6595 1.5 10.875 1.5C13.0905 1.5 14.25 5.2725 14.25 9ZM6.7965 12.75H4.5465C4.32225 11.8222 4.185 10.7962 4.14075 9.75H6.39075C6.43012 10.7606 6.56599 11.7652 6.7965 12.75ZM6.3915 8.25H4.1415C4.18008 7.23929 4.31596 6.23465 4.54725 5.25H6.79725C6.56596 6.23465 6.43008 7.23929 6.3915 8.25ZM7.27725 3.75H5.02725C5.5935 2.39925 6.42 1.5 7.5 1.5H9.75C8.67 1.5 7.8435 2.39925 7.27725 3.75ZM5.02725 14.25H7.27725C7.8435 15.6 8.67075 16.5 9.75 16.5H7.5C6.42075 16.5 5.5935 15.6 5.02725 14.25Z" fill="#DEDFE4"/>
</g>
</svg>
