<svg width="28" height="28" viewBox="0 0 28 28" fill="none" xmlns="http://www.w3.org/2000/svg">
<circle cx="14" cy="14" r="14" fill="#FFD809"/>
<g clip-path="url(#clip0_454_2188)">
<path d="M13.2502 19.8427L5.39038 16.2877V18.6502C5.39038 18.6508 5.39038 18.6513 5.39038 18.6524C5.39038 19.0147 5.60301 19.3274 5.91013 19.4731L5.91576 19.4754L13.2508 22.8352C13.4707 22.9381 13.7289 22.9983 14.0006 22.9983C14.2723 22.9983 14.5304 22.9381 14.7616 22.8307L14.7504 22.8352L22.0854 19.4754C22.3981 19.3274 22.6102 19.0147 22.6102 18.6524C22.6102 18.6519 22.6102 18.6508 22.6102 18.6502V16.2877L14.7504 19.8427C14.5304 19.9479 14.2728 20.0092 14.0006 20.0092C13.7283 20.0092 13.4701 19.9479 13.2401 19.8376L13.2508 19.8421L13.2502 19.8427Z" fill="#121925"/>
<path d="M5.67498 14.4202L13.1748 17.87C13.4127 17.9803 13.6912 18.045 13.9848 18.045C14.2784 18.045 14.5569 17.9808 14.8072 17.865L14.7948 17.87L22.2946 14.4202C22.4628 14.3409 22.5775 14.1727 22.5775 13.9775C22.5775 13.7823 22.4628 13.6141 22.2974 13.5365L22.2946 13.5354L14.8994 10.1306V13.1979C14.8994 13.6951 14.4967 14.0979 13.9994 14.0979C13.5022 14.0979 13.0994 13.6951 13.0994 13.1979V10.1306L5.67442 13.5354C5.50623 13.6147 5.39148 13.7829 5.39148 13.9781C5.39148 14.1733 5.50623 14.3415 5.6716 14.4191L5.67442 14.4202H5.67498Z" fill="#121925"/>
<path d="M16.2798 7.25731C16.2798 8.50381 15.269 9.51463 14.0225 9.51463C12.776 9.51463 11.7652 8.50381 11.7652 7.25731C11.7652 6.01081 12.776 5 14.0225 5C15.269 5 16.2798 6.01081 16.2798 7.25731Z" fill="#121925"/>
</g>
<defs>
<clipPath id="clip0_454_2188">
<rect width="18" height="18" fill="white" transform="translate(5 5)"/>
</clipPath>
</defs>
</svg>
