<svg width="22" height="22" viewBox="0 0 22 22" fill="none" xmlns="http://www.w3.org/2000/svg">
<g opacity="0.8">
<path d="M18.15 17.4H3.85C3.5475 17.4 3.3 17.6475 3.3 17.95V19.05C3.3 19.3525 3.5475 19.6 3.85 19.6H18.15C18.4525 19.6 18.7 19.3525 18.7 19.05V17.95C18.7 17.6475 18.4525 17.4 18.15 17.4ZM20.35 6.4C19.4391 6.4 18.7 7.13906 18.7 8.05C18.7 8.29406 18.755 8.52094 18.8513 8.73062L16.3625 10.2225C15.8331 10.5387 15.1491 10.36 14.8431 9.82375L12.0416 4.92187C12.4094 4.61937 12.65 4.16562 12.65 3.65C12.65 2.73906 11.9109 2 11 2C10.0891 2 9.35 2.73906 9.35 3.65C9.35 4.16562 9.59063 4.61937 9.95844 4.92187L7.15688 9.82375C6.85094 10.36 6.16344 10.5387 5.6375 10.2225L3.15219 8.73062C3.245 8.52437 3.30344 8.29406 3.30344 8.05C3.30344 7.13906 2.56437 6.4 1.65344 6.4C0.7425 6.4 0 7.13906 0 8.05C0 8.96094 0.739062 9.7 1.65 9.7C1.73937 9.7 1.82875 9.68625 1.91469 9.6725L4.4 16.3H17.6L20.0853 9.6725C20.1712 9.68625 20.2606 9.7 20.35 9.7C21.2609 9.7 22 8.96094 22 8.05C22 7.13906 21.2609 6.4 20.35 6.4Z" fill="white"/>
</g>
</svg>
