<svg width="28" height="28" viewBox="0 0 28 28" fill="none" xmlns="http://www.w3.org/2000/svg">
<circle cx="14" cy="14" r="14" fill="#FFD809"/>
<path d="M21.6339 8.64287H18.5V7.43751C18.5 7.03673 18.1776 6.71429 17.7768 6.71429H9.58036C9.17957 6.71429 8.85714 7.03673 8.85714 7.43751V8.64287H5.72321C5.32243 8.64287 5 8.9653 5 9.36608V11.0536C5 12.1294 5.67801 13.2353 6.86529 14.0881C7.81451 14.7721 8.96864 15.206 10.18 15.3447C11.1262 16.9146 12.2321 17.5625 12.2321 17.5625V19.7322H10.7857C9.72199 19.7322 8.85714 20.3559 8.85714 21.4197V21.7813C8.85714 21.9801 9.01987 22.1429 9.21875 22.1429H18.1384C18.3373 22.1429 18.5 21.9801 18.5 21.7813V21.4197C18.5 20.3559 17.6352 19.7322 16.5714 19.7322H15.125V17.5625C15.125 17.5625 16.2309 16.9146 17.1771 15.3447C18.3915 15.206 19.5456 14.7721 20.4918 14.0881C21.6761 13.2353 22.3571 12.1294 22.3571 11.0536V9.36608C22.3571 8.9653 22.0347 8.64287 21.6339 8.64287ZM7.9923 12.5241C7.25703 11.9938 6.92857 11.4031 6.92857 11.0536V10.5714H8.86317C8.8933 11.5538 9.03795 12.4156 9.24888 13.169C8.79386 13.0123 8.36897 12.7953 7.9923 12.5241ZM20.4286 11.0536C20.4286 11.5387 19.8952 12.1414 19.3648 12.5241C18.9882 12.7953 18.5603 13.0123 18.1052 13.169C18.3162 12.4156 18.4608 11.5538 18.491 10.5714H20.4286V11.0536Z" fill="#121925"/>
</svg>
