<svg width="18" height="18" viewBox="0 0 18 18" fill="none" xmlns="http://www.w3.org/2000/svg">
<path d="M17.4362 6.71152L12.3444 5.97151L10.0682 1.35698C10.006 1.23063 9.90376 1.12836 9.77741 1.06619C9.46055 0.909762 9.07551 1.04012 8.91708 1.35698L6.64089 5.97151L1.54906 6.71152C1.40868 6.73158 1.28033 6.79776 1.18206 6.89803C1.06326 7.02013 0.9978 7.18441 1.00006 7.35475C1.00231 7.5251 1.0721 7.68758 1.1941 7.8065L4.8781 11.3983L4.00774 16.47C3.98733 16.588 4.00038 16.7094 4.04543 16.8203C4.09047 16.9312 4.16569 17.0273 4.26257 17.0977C4.35945 17.1681 4.4741 17.2099 4.59353 17.2184C4.71296 17.2269 4.83239 17.2018 4.93827 17.1459L9.49264 14.7514L14.047 17.1459C14.1713 17.212 14.3157 17.2341 14.4541 17.21C14.8031 17.1499 15.0377 16.819 14.9775 16.47L14.1072 11.3983L17.7912 7.8065C17.8915 7.70823 17.9576 7.57988 17.9777 7.4395C18.0318 7.08855 17.7872 6.76367 17.4362 6.71152Z" fill="white"/>
</svg>
