<svg width="18" height="18" viewBox="0 0 18 18" fill="none" xmlns="http://www.w3.org/2000/svg">
<g clip-path="url(#clip0_454_1922)">
<path d="M7.97843 8.06148C9.16852 6.71236 10.6878 4.57277 11.1131 2.08257C12.3936 3.13877 14.3486 5.51128 13.2335 9.62951C13.3146 9.64709 13.3962 9.6659 13.4781 9.68691C13.913 9.57238 14.3597 9.50866 14.8093 9.49699C15.5 6.39815 14.6603 4.17204 13.7269 2.77183C12.9848 1.65438 11.9857 0.731113 10.8135 0.0792102C10.5811 -0.0371079 10.3049 -0.0246109 10.0838 0.112032C9.86272 0.248675 9.72814 0.489962 9.72814 0.749927C9.72814 3.50201 7.82997 6.01061 6.57629 7.36715C6.58632 7.37772 6.59648 7.38761 6.60637 7.39846C7.09142 7.55693 7.55284 7.77996 7.97843 8.06148Z" fill="white"/>
<path d="M6.18381 8.05131C5.29748 7.02532 4.26051 6.4929 3.24455 6.54193C2.28173 6.59027 1.39829 7.16279 0.756688 8.15445C-0.1376 9.53749 -0.205304 11.2983 0.579946 12.7461C1.36533 14.1936 2.87843 15.097 4.52542 15.1013C4.84512 15.1011 5.164 15.0672 5.47656 14.9999C6.64509 14.7531 7.66628 14.0492 8.31241 13.0447C8.95415 12.0534 9.11469 11.0128 8.76436 10.1148C8.39426 9.1667 7.48253 8.43982 6.18381 8.05131ZM6.72804 11.25C6.31386 11.25 5.97809 10.9142 5.97809 10.4999C5.97809 10.0857 6.31386 9.74994 6.72804 9.74994C7.14223 9.74994 7.47813 10.0857 7.47813 10.4999C7.47813 10.9142 7.14223 11.25 6.72804 11.25Z" fill="white"/>
<path d="M16.7654 10.7947C15.9398 10.1997 14.7796 10.0848 13.478 10.4643C12.1766 10.0849 11.0163 10.1996 10.1908 10.7947C9.40869 11.3582 8.97803 12.3187 8.97803 13.5C8.97803 15.9853 10.9928 18 13.478 18C15.9634 18 17.978 15.9853 17.978 13.5C17.978 12.3187 17.5474 11.3582 16.7654 10.7947ZM15.728 12.7499C15.3139 12.7499 14.9781 12.4141 14.9781 11.9999C14.9781 11.5858 15.3139 11.25 15.728 11.25C16.1422 11.25 16.4781 11.5858 16.4781 11.9999C16.4781 12.4141 16.1422 12.7499 15.728 12.7499Z" fill="white"/>
</g>
<defs>
<clipPath id="clip0_454_1922">
<rect width="18" height="18" fill="white"/>
</clipPath>
</defs>
</svg>
