<svg width="26" height="26" viewBox="0 0 26 26" fill="none" xmlns="http://www.w3.org/2000/svg">
<path d="M21.45 20.5636H4.55C4.1925 20.5636 3.9 20.8561 3.9 21.2136V22.5136C3.9 22.8711 4.1925 23.1636 4.55 23.1636H21.45C21.8075 23.1636 22.1 22.8711 22.1 22.5136V21.2136C22.1 20.8561 21.8075 20.5636 21.45 20.5636ZM24.05 7.56365C22.9734 7.56365 22.1 8.43708 22.1 9.51365C22.1 9.80208 22.165 10.0702 22.2787 10.318L19.3375 12.0811C18.7119 12.4549 17.9034 12.2436 17.5419 11.6099L14.2309 5.81677C14.6656 5.45927 14.95 4.92302 14.95 4.31365C14.95 3.23708 14.0766 2.36365 13 2.36365C11.9234 2.36365 11.05 3.23708 11.05 4.31365C11.05 4.92302 11.3344 5.45927 11.7691 5.81677L8.45812 11.6099C8.09656 12.2436 7.28406 12.4549 6.6625 12.0811L3.72531 10.318C3.835 10.0743 3.90406 9.80208 3.90406 9.51365C3.90406 8.43708 3.03062 7.56365 1.95406 7.56365C0.8775 7.56365 0 8.43708 0 9.51365C0 10.5902 0.873437 11.4636 1.95 11.4636C2.05562 11.4636 2.16125 11.4474 2.26281 11.4311L5.2 19.2636H20.8L23.7372 11.4311C23.8387 11.4474 23.9444 11.4636 24.05 11.4636C25.1266 11.4636 26 10.5902 26 9.51365C26 8.43708 25.1266 7.56365 24.05 7.56365Z" fill="#FFD809"/>
</svg>
