<?xml version="1.0" standalone="no"?>
<!DOCTYPE svg PUBLIC "-//W3C//DTD SVG 20010904//EN"
 "http://www.w3.org/TR/2001/REC-SVG-20010904/DTD/svg10.dtd">
<svg version="1.0" xmlns="http://www.w3.org/2000/svg"
 width="200.000000pt" height="200.000000pt" viewBox="0 0 200.000000 200.000000"
 preserveAspectRatio="xMidYMid meet">

<g transform="translate(0.000000,200.000000) scale(0.100000,-0.100000)"
fill="#000000" stroke="none">
<path d="M938 1704 c-79 -42 -77 -198 2 -252 62 -42 136 -17 166 55 18 43 18
117 -1 153 -28 55 -109 76 -167 44z m117 -49 c45 -44 29 -143 -26 -174 -22
-12 -31 -12 -57 -2 -35 15 -52 52 -52 117 0 34 5 47 26 63 36 28 79 27 109 -4z"/>
<path d="M852 1379 c-49 -25 -92 -88 -92 -138 0 -25 4 -32 17 -29 10 2 20 16
23 33 19 91 61 115 200 115 139 0 181 -24 200 -115 3 -17 13 -31 23 -33 26 -5
22 53 -8 104 -38 65 -87 84 -216 84 -86 0 -111 -4 -147 -21z"/>
<path d="M987 1234 c-4 -4 -7 -22 -7 -40 l0 -34 -257 -2 -258 -3 0 -65 c0 -51
3 -65 15 -65 11 0 16 13 18 48 l3 47 239 0 239 0 3 -137 c3 -115 6 -138 18
-138 12 0 15 23 18 138 l3 137 239 0 239 0 3 -47 c2 -35 7 -48 18 -48 12 0 15
14 15 65 l0 65 -257 3 -257 2 -3 37 c-3 35 -17 51 -31 37z"/>
<path d="M418 944 c-74 -40 -79 -186 -8 -249 33 -30 110 -28 144 4 45 42 60
144 31 201 -28 55 -109 76 -167 44z m117 -49 c45 -44 29 -143 -26 -174 -22
-12 -31 -12 -57 -2 -35 15 -52 52 -52 117 0 34 5 47 26 63 36 28 79 27 109 -4z"/>
<path d="M1458 944 c-72 -38 -78 -182 -12 -245 34 -32 111 -34 144 -4 48 43
66 146 35 205 -28 55 -109 76 -167 44z m119 -50 c23 -23 25 -31 20 -82 -5 -45
-12 -62 -32 -79 -62 -54 -125 -6 -125 96 0 42 4 53 26 70 37 29 79 27 111 -5z"/>
<path d="M938 784 c-79 -42 -77 -198 2 -252 62 -42 136 -17 166 55 18 43 18
117 -1 153 -28 55 -109 76 -167 44z m119 -50 c23 -23 25 -31 21 -81 -4 -46
-10 -61 -32 -80 -34 -29 -58 -29 -92 0 -23 20 -28 34 -32 84 -4 56 -2 61 23
81 37 30 80 28 112 -4z"/>
<path d="M332 619 c-49 -25 -92 -88 -92 -138 0 -48 33 -39 41 12 13 80 63 107
201 107 137 0 179 -24 198 -115 3 -17 13 -31 23 -33 26 -5 22 53 -8 104 -38
65 -87 84 -216 84 -86 0 -111 -4 -147 -21z"/>
<path d="M1372 619 c-53 -27 -83 -68 -90 -126 -4 -40 -3 -45 14 -41 11 2 21
15 24 33 19 91 61 115 200 115 139 0 181 -24 200 -115 3 -17 13 -31 23 -33 26
-5 22 53 -8 104 -38 65 -87 84 -216 84 -86 0 -111 -4 -147 -21z"/>
<path d="M852 459 c-53 -27 -83 -68 -90 -126 -4 -40 -3 -45 14 -41 11 2 21 15
24 33 19 91 61 115 200 115 139 0 181 -24 200 -115 3 -17 13 -31 23 -33 26 -5
22 53 -8 104 -38 65 -87 84 -216 84 -86 0 -111 -4 -147 -21z"/>
</g>
</svg>
